
Click To Enlarge 


-: Cover :-


   



    	http://desibbrg.org/images/24078365596476895134.jpg
    	http://desibbrg.org/images/04241262919689867161.jpg
    	http://desibbrg.org/images/61171256007221992452.jpg
    	http://desibbrg.org/images/31215317948697965113.jpg
    	http://desibbrg.org/images/14407494261972455876.jpg
    	http://desibbrg.org/images/79498055122754544741.jpg
    	http://desibbrg.org/images/21033246492894800667.jpg
    	http://desibbrg.org/images/41241324207407127473.jpg
    	http://desibbrg.org/images/38460410872629759939.jpg
    	http://desibbrg.org/images/13185630879003581148.jpg
    	http://desibbrg.org/images/19760883529872784880.jpg
    	http://desibbrg.org/images/03535688347070754641.jpg
    	http://desibbrg.org/images/31602335832862535522.jpg
    	http://desibbrg.org/images/17581287475504082409.jpg

    	http://desibbrg.org/images/65103809266268801501.jpg

-: Info :-


General

Format                           : MP4 Video
File size                        : 765 MiB
Duration                         : 2h 37mn
Overall bit rate                 : 677 Kbps
Video
Format                           : AVC
Format/Info                      : Advanced Video Codec
Format profile                   : Main@L3.0
Format settings, CABAC           : Yes
Format settings, ReFrames        : 3 frames
Duration                         : 2h 37mn
Bit rate                         : 541 Kbps
Width                            : 640 pixels
Height                           : 480 pixels
Display aspect ratio             : 4:3
Frame rate mode                  : Constant
Frame rate                       : 25.000 fps
Color space                      : YUV
Chroma subsampling               : 4:2:0
Bit depth                        : 8 bits
Scan type                        : Progressive
Bits/(Pixel*Frame)               : 0.070
Stream size                      : 610 MiB (80%)

Audio
Format                           : AAC
Format/Info                      : Advanced Audio Codec
Format version                   : Version 4
Format profile                   : LC
Format settings, SBR             : No
Duration                         : 2h 37mn
Bit rate                         : 129 Kbps
Channel(s)                       : 2 channels
Channel positions                : Front: L R
Sampling rate                    : 44.1 KHz
Bit depth                        : 16 bits
Stream size                      : 145 MiB (19%)
Ripper                           : RRG DADA

 
http://www.imdb.com/title/tt0058774/


Directed by
Ramanand Sagar	 	
 
Cast (in credits order) complete, awaiting verification
	Rajendra Kumar	... 	Rajendra 'Rajan'
	Raaj Kumar	... 	Gopal
	Vyjayanthimala	... 	Beena
	Prithviraj Kapoor	... 	Rai Bahadur Gangasaran
	Nirupa Roy		
	Mehmood	... 	Jaggu
	Jeevan	... 	Bankhe
	Kanhaiyalal	... 	Pandit
	Jayant	... 	Sher Khan
	Dhumal	... 	Chameli's dad
	Hiralal	... 	Ratanlal
	Helen	... 	Chameli
	Mumtaz Begum	... 	Jaggu's mom

	Leela Chitnis	... 	Beena's mom
	Moolchand	... 	Moolchand Moochwala
	Satyajeet		

Produced by
Ramanand Sagar	.... 	producer
 
Original Music by
Jaikishan Dayabhai Pankal	 	(as Jaikishan)
Shankarsingh Raghuwanshi	 	(as Shankar)
 
Music Department
Manna Dey	.... 	playback singer
Lata Mangeshkar	.... 	playback singer
Mohammad Rafi	.... 	playback singer 

Beena works as a stage actress and lives a poor lifestyle with her widowed mother. One day while returning home she is molested by Bankhe and two other men, but Rajan comes to her rescue. He escorts her home and soon both of them fall in love with each other. Rajan's dad, Rai Bahadur Gangasaran, is wealthy and does not approve of Beena at all. But when Rajan threatens to leave him, he changes his mind and permits them to get married. After the marriage they settle down to a harmonious life and soon Beena becomes pregnant. One night while driving, Rajan gets a flat tire, he leaves Beena in the car in order to get help. When he returns Beena has disappeared. She returns home the next day, and everyone is relieved to have her back. A few days later they get the news that Gopal, the Manager of the Theatre that Beena used to work with, has been arrested and charged with killing a man named Ratanlal. Gangasaran is on the jury and would like Gopal to get a fair trial. The police find out

